<?xml version="1.0" encoding="utf-8"?>
<!-- Generator: Adobe Illustrator 16.0.0, SVG Export Plug-In . SVG Version: 6.00 Build 0)  -->
<!DOCTYPE svg PUBLIC "-//W3C//DTD SVG 1.1//EN" "http://www.w3.org/Graphics/SVG/1.1/DTD/svg11.dtd">
<svg version="1.1" xmlns="http://www.w3.org/2000/svg" xmlns:xlink="http://www.w3.org/1999/xlink" x="0px" y="0px" width="70px"
	 height="70px" viewBox="0 0 70 70" enable-background="new 0 0 70 70" xml:space="preserve">
<g id="Layer_1" display="none">
	<g display="inline">
		<path fill="none" stroke="#A55299" stroke-width="3" stroke-miterlimit="10" d="M157.701,131.632l-28.818-28.848
			c-1.477-1.53-3.887-1.53-5.358,0l-28.818,28.848c-1.477,1.527-0.927,2.779,1.219,2.779h6.009v22.153
			c0,1.603,0.066,2.901,2.961,2.901h13.989v-22.217h14.64v22.217h14.684c2.205,0,2.262-1.299,2.262-2.901v-22.153h6.009
			C158.625,134.409,159.173,133.159,157.701,131.632z"/>
	</g>
	<path display="inline" fill="none" stroke="#A55299" stroke-width="3" stroke-linejoin="round" stroke-miterlimit="10" d="
		M335.604,130.263c0,14.578-11.821,26.399-26.399,26.399c-14.583,0-26.405-11.821-26.405-26.399c0-14.583,11.822-26.4,26.405-26.4
		C323.783,103.862,335.604,115.68,335.604,130.263z"/>
	<g display="inline">
		<path fill="none" stroke="#A55299" stroke-width="3" stroke-linejoin="round" stroke-miterlimit="10" d="M221.678,162.064h-20.139
			l2.597-23.586l-8.673-35.078c0,0,3.104-6.744,7.398-6.744c4.298,0,7.562-3.934,14.318-3.934"/>
		<path fill="none" stroke="#A55299" stroke-width="3" stroke-linejoin="round" stroke-miterlimit="10" d="M209.678,162.064h20.661
			l-2.517-23.586l9.019-35.078c0,0-2.893-6.744-7.187-6.744c-4.298,0-8.148-3.934-14.898-3.934"/>
		<path fill="none" stroke="#A55299" stroke-width="3" stroke-linejoin="round" stroke-miterlimit="10" d="M233.678,114.064h5.062
			c0,0,4.2,0.4,4.2,2.801c0,2.398-4.2,17.896-4.2,17.896s-1.2,5.303-4.8,5.303c-3.601,0-5.262,0-5.262,0"/>
	</g>
	<g display="inline">
		<path fill="none" stroke="#A55299" stroke-width="3" stroke-linecap="round" stroke-linejoin="round" stroke-miterlimit="10" d="
			M422.587,120.555c0,11.898-9.646,21.551-21.549,21.551s-21.551-9.652-21.551-21.551c0-11.902,9.647-21.549,21.551-21.549
			S422.587,108.652,422.587,120.555z"/>
		
			<line fill="none" stroke="#A55299" stroke-width="3" stroke-linecap="round" stroke-linejoin="round" stroke-miterlimit="10" x1="415.926" y1="136.985" x2="436.735" y2="157.795"/>
	</g>
	<g display="inline">
		<g>
			<path fill="#B3B3B3" d="M287.437,67.08h-16.268V44.75h-11.698v22.33h-15.569c-4.484,0-4.484-2.988-4.484-4.424v-20.76h-4.532
				c-2.287,0-3.092-1.096-3.37-1.75c-0.275-0.648-0.503-1.98,1.061-3.599l28.984-29.014c0.982-1.021,2.324-1.595,3.757-1.595
				c1.433,0,2.774,0.573,3.779,1.613l28.948,28.978c1.578,1.638,1.35,2.968,1.075,3.616c-0.278,0.652-1.084,1.748-3.37,1.75h-4.533
				v20.76C291.218,63.98,291.218,67.08,287.437,67.08z M274.185,64.064h13.252c0.518,0,0.669-0.094,0.67-0.096
				c0.096-0.164,0.096-0.969,0.096-1.312V38.883h7.547c0.132,0,0.246-0.008,0.341-0.018c-0.052-0.066-0.116-0.141-0.196-0.223
				L266.946,9.666c-0.897-0.93-2.375-0.912-3.232-0.021l-28.987,29.017c-0.072,0.074-0.131,0.143-0.179,0.203
				c0.095,0.01,0.208,0.018,0.338,0.018h7.548v23.773c0,1.408,0,1.408,1.468,1.408h12.553v-22.33h17.729V64.064z"/>
		</g>
	</g>
	<path display="inline" fill="#B3B3B3" d="M433.681,64.262c-15.44,0-28.003-12.561-28.003-27.999c0-15.439,12.562-28,28.003-28
		c15.438,0,27.997,12.561,27.997,28C461.678,51.701,449.118,64.262,433.681,64.262z M433.681,11.273
		c-13.78,0-24.992,11.21-24.992,24.989c0,13.778,11.212,24.988,24.992,24.988c13.777,0,24.986-11.21,24.986-24.988
		C458.667,22.484,447.458,11.273,433.681,11.273z"/>
	<g display="inline">
		<g>
			<path fill="#B3B3B3" d="M342.64,46.826l-0.001,0.008C342.658,46.84,342.655,46.687,342.64,46.826z"/>
			<path fill="#B3B3B3" d="M375.544,10.866c-0.34-0.797-3.482-7.786-8.67-7.786c-1.618,0-3.317-0.715-5.249-1.542
				c-2.352-1.008-5.078-1.118-8.425-1.384c-0.001,0-0.002,0-0.002,0c-0.031-0.004-0.061-0.012-0.096-0.01
				c-3.949,0.26-5.95,0.425-8.081,1.401c-1.791,0.82-3.588,1.52-5.188,1.52c-5.16,0-8.488,6.94-8.852,7.732
				c-0.144,0.315-0.177,0.637-0.094,0.973l8.697,35.356l-2.594,23.598c-0.047,0.432,0.09,0.604,0.377,0.927
				c0.288,0.323,0.699,0.493,1.129,0.493h8.18h12h8.919c0.431,0,0.838-0.17,1.126-0.491c0.287-0.321,0.425-0.236,0.38-0.667
				l-2.516-23.719l9.039-35.419C375.709,11.52,375.675,11.175,375.544,10.866z M363.586,46.526
				c-0.045,0.176-0.059,0.113-0.039,0.296l2.364,21.812h-7.233h-12h-6.487l2.448-21.801c-0.006-0.001-0.012-0.01-0.021-0.048
				l-8.607-35.146c0.941-1.82,3.408-5.509,5.92-5.509c2.254,0,4.259-0.875,6.282-1.801c2.057-0.941,3.917-1.14,6.999-1.176
				c3.065,0.033,5.009,0.219,7.203,1.159c2.144,0.919,4.255,1.756,6.491,1.756c2.478,0,4.776,3.613,5.659,5.42L363.586,46.526z"/>
		</g>
		<path fill="#B3B3B3" d="M371.234,48.564h-5.557v-3h5.557c2.322,0,3.363-3.834,3.372-3.877c1.636-6.082,4.206-16.196,4.206-17.826
			c0-0.613-1.664-2.297-2.809-2.297h-5.326v-3h5.406c0.049,0,0.097,0.098,0.145,0.102c2.086,0.201,5.615,2.411,5.615,5.433
			c0,2.516-3.579,15.609-4.297,18.274C377.013,44.757,375.062,48.564,371.234,48.564z"/>
	</g>
	<g display="inline">
		<path fill="#B3B3B3" d="M515.759,50.082c-12.657,0-22.956-10.298-22.956-22.956c0-12.656,10.299-22.954,22.956-22.954
			c12.656,0,22.954,10.298,22.954,22.954C538.713,39.784,528.415,50.082,515.759,50.082z M515.759,7.159
			c-11.01,0-19.969,8.958-19.969,19.967c0,11.011,8.959,19.968,19.969,19.968c11.009,0,19.966-8.957,19.966-19.968
			C535.725,16.117,526.768,7.159,515.759,7.159z"/>
		<path fill="#B3B3B3" d="M551.309,65.707c-0.382,0-0.765-0.146-1.056-0.438l-20.724-20.725c-0.584-0.582-0.584-1.529,0-2.112
			c0.583-0.583,1.528-0.583,2.112,0l20.724,20.724c0.583,0.584,0.583,1.529,0,2.113C552.073,65.561,551.691,65.707,551.309,65.707z"
			/>
	</g>
	<g display="inline">
		<g>
			
				<circle fill="none" stroke="#B3B3B3" stroke-width="4" stroke-linecap="round" stroke-miterlimit="10" cx="742.99" cy="-51.357" r="17.045"/>
			
				<line fill="none" stroke="#B3B3B3" stroke-width="4" stroke-linecap="round" stroke-miterlimit="10" x1="756.381" y1="-36.748" x2="771.225" y2="-21.902"/>
		</g>
		<g>
			
				<line fill="none" stroke="#B3B3B3" stroke-width="4" stroke-linecap="round" stroke-miterlimit="10" x1="236.831" y1="-66.53" x2="299.334" y2="-66.53"/>
			
				<line fill="none" stroke="#B3B3B3" stroke-width="4" stroke-linecap="round" stroke-miterlimit="10" x1="236.831" y1="-45.695" x2="299.334" y2="-45.695"/>
			
				<line fill="none" stroke="#B3B3B3" stroke-width="4" stroke-linecap="round" stroke-miterlimit="10" x1="236.831" y1="-24.861" x2="299.334" y2="-24.861"/>
		</g>
	</g>
	<g display="inline">
		
			<line fill="none" stroke="#A4C62A" stroke-width="4" stroke-linecap="round" stroke-miterlimit="10" x1="560.33" y1="12.467" x2="622.834" y2="12.467"/>
		
			<line fill="none" stroke="#A4C62A" stroke-width="4" stroke-linecap="round" stroke-miterlimit="10" x1="560.33" y1="33.302" x2="622.834" y2="33.302"/>
		
			<line fill="none" stroke="#A4C62A" stroke-width="4" stroke-linecap="round" stroke-miterlimit="10" x1="560.33" y1="54.137" x2="622.834" y2="54.137"/>
	</g>
	<g display="inline">
		
			<line fill="none" stroke="#A4C62A" stroke-width="4" stroke-linecap="round" stroke-miterlimit="10" x1="319.33" y1="12.467" x2="381.834" y2="12.467"/>
		
			<line fill="none" stroke="#A4C62A" stroke-width="4" stroke-linecap="round" stroke-miterlimit="10" x1="319.33" y1="33.302" x2="381.834" y2="33.302"/>
		
			<line fill="none" stroke="#A4C62A" stroke-width="4" stroke-linecap="round" stroke-miterlimit="10" x1="319.33" y1="54.137" x2="381.834" y2="54.137"/>
	</g>
	<g display="inline">
		<path fill="#B3B3B3" d="M297.582,16.564h-64c-0.829,0-1.5-0.671-1.5-1.5s0.671-1.5,1.5-1.5h64c0.828,0,1.5,0.671,1.5,1.5
			S298.41,16.564,297.582,16.564z"/>
		<path fill="#B3B3B3" d="M297.582,37.564h-64c-0.829,0-1.5-0.671-1.5-1.5s0.671-1.5,1.5-1.5h64c0.828,0,1.5,0.671,1.5,1.5
			S298.41,37.564,297.582,37.564z"/>
		<path fill="#B3B3B3" d="M297.582,58.564h-64c-0.829,0-1.5-0.672-1.5-1.5s0.671-1.5,1.5-1.5h64c0.828,0,1.5,0.672,1.5,1.5
			S298.41,58.564,297.582,58.564z"/>
	</g>
	<g display="inline">
		<path fill="#B3B3B3" d="M218.082,16.564h-64c-0.829,0-1.5-0.672-1.5-1.5s0.671-1.5,1.5-1.5h64c0.828,0,1.5,0.672,1.5,1.5
			S218.91,16.564,218.082,16.564z"/>
		<path fill="#B3B3B3" d="M218.082,37.564h-64c-0.829,0-1.5-0.671-1.5-1.5s0.671-1.5,1.5-1.5h64c0.828,0,1.5,0.671,1.5,1.5
			S218.91,37.564,218.082,37.564z"/>
		<path fill="#B3B3B3" d="M218.082,58.564h-64c-0.829,0-1.5-0.672-1.5-1.5s0.671-1.5,1.5-1.5h64c0.828,0,1.5,0.672,1.5,1.5
			S218.91,58.564,218.082,58.564z"/>
	</g>
	<g display="inline">
		<path fill="#B3B3B3" d="M186.08,55.501c-20.916,0-33.498-15.403-33.498-19.424c0-4.02,12.582-19.42,33.498-19.42
			c21.844,0,33.502,16.259,33.502,19.42C219.582,39.238,207.924,55.501,186.08,55.501z M155.59,36.076
			c0.506,2.434,11.072,16.425,30.49,16.425c19.424,0,29.988-13.991,30.494-16.425c-0.503-2.433-11.06-16.419-30.494-16.419
			C166.65,19.657,156.094,33.644,155.59,36.076z"/>
		<path fill="#B3B3B3" d="M186.08,51.362c-8.663,0-15.711-6.857-15.711-15.286c0-8.429,7.048-15.287,15.711-15.287
			c8.672,0,15.728,6.858,15.728,15.287C201.808,44.505,194.752,51.362,186.08,51.362z M186.08,23.79
			c-7.009,0-12.711,5.512-12.711,12.287c0,6.774,5.702,12.286,12.711,12.286c7.018,0,12.728-5.512,12.728-12.286
			C198.808,29.302,193.098,23.79,186.08,23.79z"/>
	</g>
</g>
<g id="Layer_2">
	<g>
		<g>
			<path fill="#A4C62A" d="M287.437,67.08h-16.268V44.75h-11.698v22.33h-15.569c-4.484,0-4.484-2.988-4.484-4.424v-20.76h-4.532
				c-2.287,0-3.092-1.096-3.37-1.75c-0.275-0.648-0.503-1.98,1.061-3.599l28.984-29.014c0.982-1.021,2.324-1.595,3.757-1.595
				c1.433,0,2.774,0.573,3.779,1.613l28.948,28.978c1.578,1.638,1.35,2.968,1.075,3.616c-0.278,0.652-1.084,1.748-3.37,1.75h-4.533
				v20.76C291.218,63.98,291.218,67.08,287.437,67.08z M274.185,64.064h13.252c0.518,0,0.669-0.094,0.67-0.096
				c0.096-0.164,0.096-0.969,0.096-1.312V38.883h7.547c0.132,0,0.246-0.008,0.341-0.018c-0.052-0.066-0.116-0.141-0.196-0.223
				L266.946,9.666c-0.897-0.93-2.375-0.912-3.232-0.021l-28.987,29.017c-0.072,0.074-0.131,0.143-0.179,0.203
				c0.095,0.01,0.208,0.018,0.338,0.018h7.548v23.773c0,1.408,0,1.408,1.468,1.408h12.553v-22.33h17.729V64.064z"/>
		</g>
	</g>
	<g>
		<g>
			<path fill="#A4C62A" d="M342.64,46.826l-0.001,0.008C342.658,46.84,342.655,46.687,342.64,46.826z"/>
			<path fill="#A4C62A" d="M375.544,10.866c-0.34-0.797-3.482-7.786-8.67-7.786c-1.618,0-3.317-0.715-5.249-1.542
				c-2.352-1.008-5.078-1.118-8.425-1.384c-0.001,0-0.002,0-0.002,0c-0.031-0.004-0.061-0.012-0.096-0.01
				c-3.949,0.26-5.95,0.425-8.081,1.401c-1.791,0.82-3.588,1.52-5.188,1.52c-5.16,0-8.488,6.94-8.852,7.732
				c-0.144,0.315-0.177,0.637-0.094,0.973l8.697,35.356l-2.594,23.598c-0.047,0.432,0.09,0.604,0.377,0.927
				c0.288,0.323,0.699,0.493,1.129,0.493h8.18h12h8.919c0.431,0,0.838-0.17,1.126-0.491c0.287-0.321,0.425-0.236,0.38-0.667
				l-2.516-23.719l9.039-35.419C375.709,11.52,375.675,11.175,375.544,10.866z M363.586,46.526
				c-0.045,0.176-0.059,0.113-0.039,0.296l2.364,21.812h-7.233h-12h-6.487l2.448-21.801c-0.006-0.001-0.012-0.01-0.021-0.048
				l-8.607-35.146c0.941-1.82,3.408-5.509,5.92-5.509c2.254,0,4.259-0.875,6.282-1.801c2.057-0.941,3.917-1.14,6.999-1.176
				c3.065,0.033,5.009,0.219,7.203,1.159c2.144,0.919,4.255,1.756,6.491,1.756c2.478,0,4.776,3.613,5.659,5.42L363.586,46.526z"/>
		</g>
		<path fill="#A4C62A" d="M371.234,48.564h-5.557v-3h5.557c2.322,0,3.363-3.834,3.372-3.877c1.636-6.082,4.206-16.196,4.206-17.826
			c0-0.613-1.664-2.297-2.809-2.297h-5.326v-3h5.406c0.049,0,0.097,0.098,0.145,0.102c2.086,0.201,5.615,2.411,5.615,5.433
			c0,2.516-3.579,15.609-4.297,18.274C377.013,44.757,375.062,48.564,371.234,48.564z"/>
	</g>
	<path fill="#A4C62A" d="M433.681,64.262c-15.44,0-28.003-12.561-28.003-27.999c0-15.439,12.562-28,28.003-28
		c15.438,0,27.997,12.561,27.997,28C461.678,51.701,449.118,64.262,433.681,64.262z M433.681,11.273
		c-13.78,0-24.992,11.21-24.992,24.989c0,13.778,11.212,24.988,24.992,24.988c13.777,0,24.986-11.21,24.986-24.988
		C458.667,22.484,447.458,11.273,433.681,11.273z"/>
	<g>
		<path fill="#A4C62A" d="M515.759,50.082c-12.657,0-22.956-10.298-22.956-22.956c0-12.656,10.299-22.954,22.956-22.954
			c12.656,0,22.954,10.298,22.954,22.954C538.713,39.784,528.415,50.082,515.759,50.082z M515.759,7.159
			c-11.01,0-19.969,8.958-19.969,19.967c0,11.011,8.959,19.968,19.969,19.968c11.009,0,19.966-8.957,19.966-19.968
			C535.725,16.117,526.768,7.159,515.759,7.159z"/>
		<path fill="#A4C62A" d="M551.309,65.707c-0.382,0-0.765-0.146-1.056-0.438l-20.724-20.725c-0.584-0.582-0.584-1.529,0-2.112
			c0.583-0.583,1.528-0.583,2.112,0l20.724,20.724c0.583,0.584,0.583,1.529,0,2.113C552.073,65.561,551.691,65.707,551.309,65.707z"
			/>
	</g>
	<g>
		<path fill="#A4C62A" d="M147.082,16.564h-64c-0.829,0-1.5-0.672-1.5-1.5s0.671-1.5,1.5-1.5h64c0.828,0,1.5,0.672,1.5,1.5
			S147.91,16.564,147.082,16.564z"/>
		<path fill="#A4C62A" d="M147.082,37.564h-64c-0.829,0-1.5-0.671-1.5-1.5s0.671-1.5,1.5-1.5h64c0.828,0,1.5,0.671,1.5,1.5
			S147.91,37.564,147.082,37.564z"/>
		<path fill="#A4C62A" d="M147.082,58.564h-64c-0.829,0-1.5-0.672-1.5-1.5s0.671-1.5,1.5-1.5h64c0.828,0,1.5,0.672,1.5,1.5
			S147.91,58.564,147.082,58.564z"/>
	</g>
	<g>
		<path fill="#A4C62A" d="M187.08,55.751c-20.916,0-33.498-15.403-33.498-19.424c0-4.02,12.582-19.42,33.498-19.42
			c21.844,0,33.502,16.259,33.502,19.42C220.582,39.488,208.924,55.751,187.08,55.751z M156.59,36.326
			c0.506,2.434,11.072,16.425,30.49,16.425c19.424,0,29.988-13.991,30.494-16.425c-0.503-2.433-11.06-16.419-30.494-16.419
			C167.65,19.907,157.094,33.894,156.59,36.326z"/>
		<path fill="#A4C62A" d="M187.08,51.612c-8.663,0-15.711-6.857-15.711-15.286c0-8.429,7.048-15.287,15.711-15.287
			c8.672,0,15.728,6.858,15.728,15.287C202.808,44.755,195.752,51.612,187.08,51.612z M187.08,24.04
			c-7.009,0-12.711,5.512-12.711,12.287c0,6.774,5.702,12.286,12.711,12.286c7.018,0,12.728-5.512,12.728-12.286
			C199.808,29.552,194.098,24.04,187.08,24.04z"/>
	</g>
	<g>
		<path fill="#C2C2C2" d="M297.23,139.046c-0.529,0.534-0.529,1.4,0,1.936c0.532,0.538,1.391,0.538,1.923,0l15.511-15.663
			c0.53-0.537,0.53-1.406,0-1.939l-15.511-15.668c-0.532-0.535-1.391-0.535-1.923,0c-0.529,0.538-0.529,1.402,0,1.939l14.146,14.699
			L297.23,139.046z"/>
		<path fill="#C2C2C2" d="M268.35,124.748c0-19.298,15.702-34.998,35.002-34.998c19.298,0,34.998,15.7,34.998,34.998
			c0,19.302-15.7,35.002-34.998,35.002C284.052,159.75,268.35,144.05,268.35,124.748z M335.932,124.748
			c0-17.963-14.616-32.579-32.58-32.579c-17.967,0-32.585,14.616-32.585,32.579c0,17.967,14.618,32.585,32.585,32.585
			C321.315,157.333,335.932,142.715,335.932,124.748z"/>
	</g>
	<g>
		<path fill="#C2C2C2" d="M41.119,20.706c0.53-0.536,0.53-1.4,0-1.938c-0.532-0.536-1.393-0.536-1.922,0L23.685,34.434
			c-0.53,0.535-0.53,1.404,0,1.938l15.512,15.67c0.529,0.533,1.39,0.533,1.922,0c0.53-0.538,0.53-1.404,0-1.939L26.973,35.402
			L41.119,20.706z"/>
		<path fill="#C2C2C2" d="M70,35.002C70,54.3,54.298,70,34.998,70C15.699,70,0,54.3,0,35.002C0,15.702,15.699,0,34.998,0
			C54.298,0,70,15.702,70,35.002z M2.417,35.002c0,17.965,14.616,32.579,32.581,32.579c17.967,0,32.583-14.614,32.583-32.579
			c0-17.967-14.616-32.585-32.583-32.585C17.033,2.417,2.417,17.035,2.417,35.002z"/>
	</g>
</g>
<g id="Layer_3" display="none">
	<g display="inline">
		<path fill="#A4C62A" d="M49.551,47.441c0.534,0.529,1.401,0.529,1.938,0c0.535-0.531,0.535-1.391,0-1.922L35.824,30.008
			c-0.537-0.529-1.404-0.529-1.938,0L18.217,45.52c-0.535,0.531-0.535,1.391,0,1.922c0.538,0.529,1.403,0.529,1.94,0l14.698-14.146
			L49.551,47.441z"/>
		<path fill="#A4C62A" d="M34.997,70C15.699,70,0,54.3,0,35S15.699,0,34.997,0C54.298,0,70,15.7,70,35S54.298,70,34.997,70z
			 M34.997,2.419C17.034,2.419,2.418,17.035,2.418,35c0,17.967,14.616,32.582,32.579,32.582c17.968,0,32.584-14.615,32.584-32.582
			C67.581,17.035,52.964,2.419,34.997,2.419z"/>
		<path fill="#A4C62A" d="M50.625,27.564H19.303c-0.81,0-1.463-0.69-1.463-1.5s0.654-1.5,1.463-1.5h31.322
			c0.81,0,1.466,0.69,1.466,1.5S51.435,27.564,50.625,27.564z"/>
	</g>
	<g display="inline">
		<path fill="#A4C62A" d="M147.082,16.564h-64c-0.829,0-1.5-0.672-1.5-1.5s0.671-1.5,1.5-1.5h64c0.828,0,1.5,0.672,1.5,1.5
			S147.91,16.564,147.082,16.564z"/>
		<path fill="#A4C62A" d="M147.082,37.564h-64c-0.829,0-1.5-0.671-1.5-1.5s0.671-1.5,1.5-1.5h64c0.828,0,1.5,0.671,1.5,1.5
			S147.91,37.564,147.082,37.564z"/>
		<path fill="#A4C62A" d="M147.082,58.564h-64c-0.829,0-1.5-0.672-1.5-1.5s0.671-1.5,1.5-1.5h64c0.828,0,1.5,0.672,1.5,1.5
			S147.91,58.564,147.082,58.564z"/>
	</g>
</g>
</svg>
